massMuscle_states
version=1
nRows=35
nColumns=15
inDegrees=yes

# SIMM Motion File Header:
name massMuscle_states
datacolumns 15
datarows 35
otherdata 1
range 0.00000000 0.20000000
endheader
time	massToGround_xRotation	massToGround_yRotation	massToGround_zRotation	massToGround_xTranslation	massToGround_yTranslation	massToGround_zTranslation	massToGround_xRotation_u	massToGround_yRotation_u	massToGround_zRotation_u	massToGround_xTranslation_u	massToGround_yTranslation_u	massToGround_zTranslation_u	muscle.activation	muscle.fiber_length
      0.00000000	      0.00000000	      0.00000000	      0.00000000	      0.00000000	      0.00000000	      0.00000000	      0.00000000	      0.00000000	      0.00000000	      0.00000000	      0.00000000	      0.00000000	      0.05000000	      1.10913984
      0.00066154	      0.00000000	      0.00000000	      0.00000000	     -0.00000000	     -0.00000215	     -0.00000000	      0.00000000	      0.00000000	      0.00000000	     -0.00001494	     -0.00650247	     -0.00001494	      0.11478721	      1.10891252
      0.00132309	      0.00000000	      0.00000000	      0.00000000	     -0.00000002	     -0.00000860	     -0.00000002	      0.00000000	      0.00000000	      0.00000000	     -0.00003155	     -0.01300660	     -0.00003155	      0.16786686	      1.10838736
      0.00198463	      0.00000000	      0.00000000	      0.00000000	     -0.00000005	     -0.00001936	     -0.00000005	      0.00000000	      0.00000000	      0.00000000	     -0.00005097	     -0.01951354	     -0.00005097	      0.21317650	      1.10771940
      0.00296180	      0.00000000	      0.00000000	      0.00000000	     -0.00000011	     -0.00004313	     -0.00000011	      0.00000000	      0.00000000	      0.00000000	     -0.00008659	     -0.02913196	     -0.00008659	      0.27019997	      1.10664460
      0.00415559	      0.00000000	      0.00000000	      0.00000000	     -0.00000025	     -0.00008492	     -0.00000025	      0.00000000	      0.00000000	      0.00000000	     -0.00014405	     -0.04089646	     -0.00014405	      0.32857888	      1.10535685
      0.00563404	      0.00000000	      0.00000000	      0.00000000	     -0.00000053	     -0.00015617	     -0.00000053	      0.00000000	      0.00000000	      0.00000000	     -0.00024033	     -0.05549133	     -0.00024033	      0.38890961	      1.10393317
      0.00745550	      0.00000000	      0.00000000	      0.00000000	     -0.00000111	     -0.00027366	     -0.00000111	      0.00000000	      0.00000000	      0.00000000	     -0.00040099	     -0.07351438	     -0.00040099	      0.45048471	      1.10249043
      0.00969340	      0.00000000	      0.00000000	      0.00000000	     -0.00000228	     -0.00046301	     -0.00000228	      0.00000000	      0.00000000	      0.00000000	     -0.00066274	     -0.09572240	     -0.00066274	      0.51259291	      1.10113200
      0.01243631	      0.00000000	      0.00000000	      0.00000000	     -0.00000464	     -0.00076300	     -0.00000464	      0.00000000	      0.00000000	      0.00000000	     -0.00107238	     -0.12303048	     -0.00107238	      0.57437136	      1.09992310
      0.01579113	      0.00000000	      0.00000000	      0.00000000	     -0.00000924	     -0.00123193	     -0.00000924	      0.00000000	      0.00000000	      0.00000000	     -0.00168326	     -0.15654037	     -0.00168326	      0.63480149	      1.09887384
      0.01988104	      0.00000000	      0.00000000	      0.00000000	     -0.00001785	     -0.00195591	     -0.00001785	      0.00000000	      0.00000000	      0.00000000	     -0.00254727	     -0.19751133	     -0.00254727	      0.69263508	      1.09791544
      0.02494636	      0.00000000	      0.00000000	      0.00000000	     -0.00003373	     -0.00308514	     -0.00003373	      0.00000000	      0.00000000	      0.00000000	     -0.00373927	     -0.24837418	     -0.00373927	      0.74740420	      1.09691248
      0.03121276	      0.00000000	      0.00000000	      0.00000000	     -0.00006212	     -0.00483903	     -0.00006212	      0.00000000	      0.00000000	      0.00000000	     -0.00534094	     -0.31142203	     -0.00534094	      0.79732441	      1.09576885
      0.03333333	      0.00000000	      0.00000000	      0.00000000	     -0.00007404	     -0.00552207	     -0.00007404	      0.00000000	      0.00000000	      0.00000000	     -0.00590624	     -0.33278013	     -0.00590624	      0.81087910	      1.09538809
      0.03906808	      0.00000000	      0.00000000	      0.00000000	     -0.00011239	     -0.00759619	     -0.00011239	      0.00000000	      0.00000000	      0.00000000	     -0.00747828	     -0.39058072	     -0.00747828	      0.84102062	      1.09434815
      0.04917059	      0.00000000	      0.00000000	      0.00000000	     -0.00020236	     -0.01205677	     -0.00020236	      0.00000000	      0.00000000	      0.00000000	     -0.01034979	     -0.49249639	     -0.01034979	      0.87693430	      1.09240628
      0.06294051	      0.00000000	      0.00000000	      0.00000000	     -0.00037241	     -0.01979527	     -0.00037241	      0.00000000	      0.00000000	      0.00000000	     -0.01435654	     -0.63147784	     -0.01435654	      0.90306551	      1.08938757
      0.06666667	      0.00000000	      0.00000000	      0.00000000	     -0.00042794	     -0.02221833	     -0.00042794	      0.00000000	      0.00000000	      0.00000000	     -0.01544527	     -0.66908528	     -0.01544527	      0.90709288	      1.08848622
      0.08117825	      0.00000000	      0.00000000	      0.00000000	     -0.00068271	     -0.03299025	     -0.00068271	      0.00000000	      0.00000000	      0.00000000	     -0.01965770	     -0.81549450	     -0.01965770	      0.91450735	      1.08456554
      0.09397279	      0.00000000	      0.00000000	      0.00000000	     -0.00095763	     -0.04424937	     -0.00095763	      0.00000000	      0.00000000	      0.00000000	     -0.02330199	     -0.94447306	     -0.02330199	      0.91351137	      1.08055349
      0.10000000	      0.00000000	      0.00000000	      0.00000000	     -0.00110317	     -0.05012490	     -0.00110317	      0.00000000	      0.00000000	      0.00000000	     -0.02499027	     -1.00519014	     -0.02499027	      0.91137326	      1.07849613
      0.10676733	      0.00000000	      0.00000000	      0.00000000	     -0.00127863	     -0.05715792	     -0.00127863	      0.00000000	      0.00000000	      0.00000000	     -0.02685899	     -1.07332564	     -0.02685899	      0.90804851	      1.07604202
      0.11613330	      0.00000000	      0.00000000	      0.00000000	     -0.00154212	     -0.06765201	     -0.00154212	      0.00000000	      0.00000000	      0.00000000	     -0.02939713	     -1.16755776	     -0.02939713	      0.90223893	      1.07240832
      0.12885989	      0.00000000	      0.00000000	      0.00000000	     -0.00193774	     -0.08332517	     -0.00193774	      0.00000000	      0.00000000	      0.00000000	     -0.03275238	     -1.29547097	     -0.03275238	      0.89278014	      1.06703835
      0.13333333	      0.00000000	      0.00000000	      0.00000000	     -0.00208684	     -0.08922089	     -0.00208684	      0.00000000	      0.00000000	      0.00000000	     -0.03391012	     -1.34040048	     -0.03391012	      0.88915355	      1.06507291
      0.13981682	      0.00000000	      0.00000000	      0.00000000	     -0.00231206	     -0.09812234	     -0.00231206	      0.00000000	      0.00000000	      0.00000000	     -0.03556032	     -1.40548076	     -0.03556032	      0.88369266	      1.06209281
      0.14803419	      0.00000000	      0.00000000	      0.00000000	     -0.00261272	     -0.11001040	     -0.00261272	      0.00000000	      0.00000000	      0.00000000	     -0.03760888	     -1.48790569	     -0.03760888	      0.87650027	      1.05813035
      0.15625156	      0.00000000	      0.00000000	      0.00000000	     -0.00293005	     -0.12257553	     -0.00293005	      0.00000000	      0.00000000	      0.00000000	     -0.03961598	     -1.57026934	     -0.03961598	      0.86908181	      1.05402135
      0.16515769	      0.00000000	      0.00000000	      0.00000000	     -0.00329238	     -0.13695780	     -0.00329238	      0.00000000	      0.00000000	      0.00000000	     -0.04174117	     -1.65946402	     -0.04174117	      0.86085747	      1.04937829
      0.16666667	      0.00000000	      0.00000000	      0.00000000	     -0.00335564	     -0.13947329	     -0.00335564	      0.00000000	      0.00000000	      0.00000000	     -0.04209680	     -1.67456955	     -0.04209680	      0.85944918	      1.04857885
      0.17406382	      0.00000000	      0.00000000	      0.00000000	     -0.00367342	     -0.15213413	     -0.00367342	      0.00000000	      0.00000000	      0.00000000	     -0.04381770	     -1.74858610	     -0.04381770	      0.85249628	      1.04457322
      0.18276960	      0.00000000	      0.00000000	      0.00000000	     -0.00406356	     -0.16773590	     -0.00406356	      0.00000000	      0.00000000	      0.00000000	     -0.04580001	     -1.83563258	     -0.04580001	      0.84422940	      1.03971881
      0.19147538	      0.00000000	      0.00000000	      0.00000000	     -0.00447076	     -0.18409518	     -0.00447076	      0.00000000	      0.00000000	      0.00000000	     -0.04773809	     -1.92261131	     -0.04773809	      0.83589674	      1.03473756
      0.20000000	      0.00000000	      0.00000000	      0.00000000	     -0.00488566	     -0.20084750	     -0.00488566	      0.00000000	      0.00000000	      0.00000000	     -0.04959278	     -2.00771423	     -0.04959278	      0.82769214	      1.02973813
